<mxfile host="Electron" agent="Mozilla/5.0 (Windows NT 10.0; Win64; x64) AppleWebKit/537.36 (KHTML, like Gecko) draw.io/26.1.1 Chrome/132.0.6834.210 Electron/34.3.3 Safari/537.36" version="26.1.1">
  <diagram name="Page-1" id="hsc2KMRZ6bhrmwtduWx4">
    <mxGraphModel dx="987" dy="669" grid="1" gridSize="10" guides="1" tooltips="1" connect="1" arrows="1" fold="1" page="1" pageScale="1" pageWidth="850" pageHeight="1100" math="0" shadow="0">
      <root>
        <mxCell id="0" />
        <mxCell id="1" parent="0" />
        <mxCell id="O-xmrvNS8dKCKgFI-HjT-2" value="&lt;b&gt;&lt;font face=&quot;Comic Sans MS&quot;&gt;Database Exploration&lt;/font&gt;&lt;/b&gt;" style="rounded=0;whiteSpace=wrap;html=1;sketch=1;curveFitting=1;jiggle=2;fillColor=#dae8fc;strokeColor=#6c8ebf;" vertex="1" parent="1">
          <mxGeometry x="240" y="190" width="120" height="60" as="geometry" />
        </mxCell>
        <mxCell id="O-xmrvNS8dKCKgFI-HjT-3" value="&lt;b&gt;1&lt;/b&gt;" style="ellipse;whiteSpace=wrap;html=1;aspect=fixed;fillColor=#dae8fc;strokeColor=#6c8ebf;" vertex="1" parent="1">
          <mxGeometry x="220" y="200" width="40" height="40" as="geometry" />
        </mxCell>
        <mxCell id="O-xmrvNS8dKCKgFI-HjT-4" value="&lt;b&gt;&lt;font face=&quot;Comic Sans MS&quot;&gt;Dimension&lt;/font&gt;&lt;/b&gt;&lt;div&gt;&lt;b&gt;&lt;font face=&quot;Comic Sans MS&quot;&gt;Exploration&lt;/font&gt;&lt;/b&gt;&lt;/div&gt;" style="rounded=0;whiteSpace=wrap;html=1;sketch=1;curveFitting=1;jiggle=2;fillColor=#dae8fc;strokeColor=#6c8ebf;" vertex="1" parent="1">
          <mxGeometry x="450" y="190" width="120" height="60" as="geometry" />
        </mxCell>
        <mxCell id="O-xmrvNS8dKCKgFI-HjT-5" value="&lt;b&gt;2&lt;/b&gt;" style="ellipse;whiteSpace=wrap;html=1;aspect=fixed;fillColor=#dae8fc;strokeColor=#6c8ebf;" vertex="1" parent="1">
          <mxGeometry x="430" y="200" width="40" height="40" as="geometry" />
        </mxCell>
        <mxCell id="O-xmrvNS8dKCKgFI-HjT-6" value="&lt;b&gt;&lt;font face=&quot;Comic Sans MS&quot;&gt;Date&lt;/font&gt;&lt;/b&gt;&lt;div&gt;&lt;b&gt;&lt;font face=&quot;Comic Sans MS&quot;&gt;Exploration&lt;/font&gt;&lt;/b&gt;&lt;/div&gt;" style="rounded=0;whiteSpace=wrap;html=1;sketch=1;curveFitting=1;jiggle=2;fillColor=#dae8fc;strokeColor=#6c8ebf;" vertex="1" parent="1">
          <mxGeometry x="590" y="310" width="120" height="60" as="geometry" />
        </mxCell>
        <mxCell id="O-xmrvNS8dKCKgFI-HjT-7" value="&lt;b&gt;3&lt;/b&gt;" style="ellipse;whiteSpace=wrap;html=1;aspect=fixed;fillColor=#dae8fc;strokeColor=#6c8ebf;" vertex="1" parent="1">
          <mxGeometry x="570" y="320" width="40" height="40" as="geometry" />
        </mxCell>
        <mxCell id="O-xmrvNS8dKCKgFI-HjT-8" value="&lt;b&gt;&lt;font face=&quot;Comic Sans MS&quot;&gt;Measure&lt;/font&gt;&lt;/b&gt;&lt;div&gt;&lt;b&gt;&lt;font face=&quot;Comic Sans MS&quot;&gt;Exploration&lt;/font&gt;&lt;/b&gt;&lt;/div&gt;&lt;div&gt;&lt;font style=&quot;&quot; face=&quot;Comic Sans MS&quot;&gt;Big Numbers&lt;/font&gt;&lt;/div&gt;" style="rounded=0;whiteSpace=wrap;html=1;sketch=1;curveFitting=1;jiggle=2;fillColor=#dae8fc;strokeColor=#6c8ebf;" vertex="1" parent="1">
          <mxGeometry x="590" y="410" width="120" height="60" as="geometry" />
        </mxCell>
        <mxCell id="O-xmrvNS8dKCKgFI-HjT-9" value="&lt;b&gt;4&lt;/b&gt;" style="ellipse;whiteSpace=wrap;html=1;aspect=fixed;fillColor=#dae8fc;strokeColor=#6c8ebf;" vertex="1" parent="1">
          <mxGeometry x="570" y="420" width="40" height="40" as="geometry" />
        </mxCell>
        <mxCell id="O-xmrvNS8dKCKgFI-HjT-10" value="&lt;font face=&quot;Comic Sans MS&quot;&gt;&lt;b&gt;Magnitude&lt;/b&gt;&lt;/font&gt;" style="rounded=0;whiteSpace=wrap;html=1;sketch=1;curveFitting=1;jiggle=2;fillColor=#dae8fc;strokeColor=#6c8ebf;" vertex="1" parent="1">
          <mxGeometry x="440" y="530" width="120" height="60" as="geometry" />
        </mxCell>
        <mxCell id="O-xmrvNS8dKCKgFI-HjT-11" value="&lt;b&gt;5&lt;/b&gt;" style="ellipse;whiteSpace=wrap;html=1;aspect=fixed;fillColor=#dae8fc;strokeColor=#6c8ebf;" vertex="1" parent="1">
          <mxGeometry x="420" y="540" width="40" height="40" as="geometry" />
        </mxCell>
        <mxCell id="O-xmrvNS8dKCKgFI-HjT-12" value="&lt;font face=&quot;Comic Sans MS&quot;&gt;&lt;b&gt;Ranking&lt;/b&gt;&lt;/font&gt;&lt;div&gt;&lt;font face=&quot;Comic Sans MS&quot;&gt;Top N&lt;/font&gt;&lt;/div&gt;&lt;div&gt;&lt;font face=&quot;Comic Sans MS&quot;&gt;Bottom N&lt;/font&gt;&lt;/div&gt;" style="rounded=0;whiteSpace=wrap;html=1;sketch=1;curveFitting=1;jiggle=2;fillColor=#dae8fc;strokeColor=#6c8ebf;" vertex="1" parent="1">
          <mxGeometry x="250" y="530" width="120" height="60" as="geometry" />
        </mxCell>
        <mxCell id="O-xmrvNS8dKCKgFI-HjT-13" value="&lt;b&gt;6&lt;/b&gt;" style="ellipse;whiteSpace=wrap;html=1;aspect=fixed;fillColor=#dae8fc;strokeColor=#6c8ebf;" vertex="1" parent="1">
          <mxGeometry x="230" y="540" width="40" height="40" as="geometry" />
        </mxCell>
        <mxCell id="O-xmrvNS8dKCKgFI-HjT-14" value="&lt;b&gt;&lt;font style=&quot;font-size: 13px;&quot; face=&quot;Comic Sans MS&quot;&gt;Exploratory Data Analysis&lt;/font&gt;&lt;/b&gt;&lt;div&gt;&lt;b&gt;&lt;font style=&quot;font-size: 13px;&quot; face=&quot;Comic Sans MS&quot;&gt;(EDA)&lt;/font&gt;&lt;/b&gt;&lt;/div&gt;" style="ellipse;whiteSpace=wrap;html=1;aspect=fixed;sketch=1;curveFitting=1;jiggle=2;fillColor=#dae8fc;strokeColor=#6c8ebf;" vertex="1" parent="1">
          <mxGeometry x="325" y="320" width="140" height="140" as="geometry" />
        </mxCell>
        <mxCell id="O-xmrvNS8dKCKgFI-HjT-16" value="" style="endArrow=none;html=1;rounded=0;exitX=0.573;exitY=1.017;exitDx=0;exitDy=0;exitPerimeter=0;entryX=0.181;entryY=0.096;entryDx=0;entryDy=0;entryPerimeter=0;fillColor=#dae8fc;strokeColor=#6c8ebf;dashed=1;sketch=1;curveFitting=1;jiggle=2;" edge="1" parent="1" source="O-xmrvNS8dKCKgFI-HjT-2" target="O-xmrvNS8dKCKgFI-HjT-14">
          <mxGeometry width="50" height="50" relative="1" as="geometry">
            <mxPoint x="320" y="420" as="sourcePoint" />
            <mxPoint x="370" y="370" as="targetPoint" />
          </mxGeometry>
        </mxCell>
        <mxCell id="O-xmrvNS8dKCKgFI-HjT-17" value="" style="endArrow=none;html=1;rounded=0;exitX=0.403;exitY=1.043;exitDx=0;exitDy=0;exitPerimeter=0;entryX=1;entryY=0;entryDx=0;entryDy=0;fillColor=#dae8fc;strokeColor=#6c8ebf;dashed=1;sketch=1;curveFitting=1;jiggle=2;" edge="1" parent="1" source="O-xmrvNS8dKCKgFI-HjT-4" target="O-xmrvNS8dKCKgFI-HjT-14">
          <mxGeometry width="50" height="50" relative="1" as="geometry">
            <mxPoint x="319" y="261" as="sourcePoint" />
            <mxPoint x="360" y="343" as="targetPoint" />
          </mxGeometry>
        </mxCell>
        <mxCell id="O-xmrvNS8dKCKgFI-HjT-18" value="" style="endArrow=none;html=1;rounded=0;entryX=0.987;entryY=0.353;entryDx=0;entryDy=0;entryPerimeter=0;fillColor=#dae8fc;strokeColor=#6c8ebf;dashed=1;sketch=1;curveFitting=1;jiggle=2;" edge="1" parent="1" source="O-xmrvNS8dKCKgFI-HjT-7" target="O-xmrvNS8dKCKgFI-HjT-14">
          <mxGeometry width="50" height="50" relative="1" as="geometry">
            <mxPoint x="508" y="263" as="sourcePoint" />
            <mxPoint x="454" y="351" as="targetPoint" />
          </mxGeometry>
        </mxCell>
        <mxCell id="O-xmrvNS8dKCKgFI-HjT-19" value="" style="endArrow=none;html=1;rounded=0;entryX=0.999;entryY=0.661;entryDx=0;entryDy=0;entryPerimeter=0;exitX=0;exitY=0.25;exitDx=0;exitDy=0;exitPerimeter=0;fillColor=#dae8fc;strokeColor=#6c8ebf;dashed=1;sketch=1;curveFitting=1;jiggle=2;" edge="1" parent="1" source="O-xmrvNS8dKCKgFI-HjT-9" target="O-xmrvNS8dKCKgFI-HjT-14">
          <mxGeometry width="50" height="50" relative="1" as="geometry">
            <mxPoint x="581" y="354" as="sourcePoint" />
            <mxPoint x="473" y="379" as="targetPoint" />
          </mxGeometry>
        </mxCell>
        <mxCell id="O-xmrvNS8dKCKgFI-HjT-20" value="" style="endArrow=none;html=1;rounded=0;exitX=0.5;exitY=0;exitDx=0;exitDy=0;fillColor=#dae8fc;strokeColor=#6c8ebf;dashed=1;sketch=1;curveFitting=1;jiggle=2;" edge="1" parent="1" source="O-xmrvNS8dKCKgFI-HjT-10" target="O-xmrvNS8dKCKgFI-HjT-14">
          <mxGeometry width="50" height="50" relative="1" as="geometry">
            <mxPoint x="580" y="440" as="sourcePoint" />
            <mxPoint x="475" y="423" as="targetPoint" />
          </mxGeometry>
        </mxCell>
        <mxCell id="O-xmrvNS8dKCKgFI-HjT-21" value="" style="endArrow=none;html=1;rounded=0;exitX=0.75;exitY=0;exitDx=0;exitDy=0;fillColor=#dae8fc;strokeColor=#6c8ebf;dashed=1;sketch=1;curveFitting=1;jiggle=2;" edge="1" parent="1" source="O-xmrvNS8dKCKgFI-HjT-12" target="O-xmrvNS8dKCKgFI-HjT-14">
          <mxGeometry width="50" height="50" relative="1" as="geometry">
            <mxPoint x="510" y="540" as="sourcePoint" />
            <mxPoint x="447" y="456" as="targetPoint" />
          </mxGeometry>
        </mxCell>
        <mxCell id="O-xmrvNS8dKCKgFI-HjT-58" value="&lt;i&gt;&lt;b style=&quot;font-size: 7px; font-family: &amp;quot;Comic Sans MS&amp;quot;; background-color: transparent; color: light-dark(rgb(0, 0, 0), rgb(255, 255, 255));&quot;&gt;How many tables?&lt;/b&gt;&lt;br&gt;&lt;b style=&quot;font-size: 7px; font-family: &amp;quot;Comic Sans MS&amp;quot;; background-color: transparent; color: light-dark(rgb(0, 0, 0), rgb(255, 255, 255));&quot;&gt;What are the column names?&lt;/b&gt;&lt;/i&gt;&lt;div&gt;&lt;b style=&quot;font-size: 7px; font-family: &amp;quot;Comic Sans MS&amp;quot;; background-color: transparent; color: light-dark(rgb(0, 0, 0), rgb(255, 255, 255));&quot;&gt;&lt;i&gt;Other Object (views, stored procedures, etc.)&lt;/i&gt;&lt;/b&gt;&lt;/div&gt;" style="text;html=1;align=left;verticalAlign=middle;whiteSpace=wrap;rounded=0;" vertex="1" parent="1">
          <mxGeometry x="220" y="140" width="170" height="30" as="geometry" />
        </mxCell>
        <mxCell id="O-xmrvNS8dKCKgFI-HjT-59" value="&lt;font face=&quot;Comic Sans MS&quot;&gt;&lt;span style=&quot;font-size: 7px;&quot;&gt;&lt;b&gt;&lt;i&gt;Process of exploring categorical variables&lt;/i&gt;&lt;/b&gt;&lt;/span&gt;&lt;/font&gt;" style="text;html=1;align=left;verticalAlign=middle;whiteSpace=wrap;rounded=0;" vertex="1" parent="1">
          <mxGeometry x="450" y="140" width="170" height="30" as="geometry" />
        </mxCell>
        <mxCell id="O-xmrvNS8dKCKgFI-HjT-60" value="&lt;font face=&quot;Comic Sans MS&quot;&gt;&lt;span style=&quot;font-size: 7px;&quot;&gt;&lt;b&gt;&lt;i&gt;Time boundaries&lt;/i&gt;&lt;/b&gt;&lt;/span&gt;&lt;/font&gt;&lt;div&gt;&lt;font face=&quot;Comic Sans MS&quot;&gt;&lt;span style=&quot;font-size: 7px;&quot;&gt;&lt;b&gt;&lt;i&gt;Time span&lt;/i&gt;&lt;/b&gt;&lt;/span&gt;&lt;/font&gt;&lt;/div&gt;" style="text;html=1;align=left;verticalAlign=middle;whiteSpace=wrap;rounded=0;" vertex="1" parent="1">
          <mxGeometry x="590" y="270" width="170" height="30" as="geometry" />
        </mxCell>
        <mxCell id="O-xmrvNS8dKCKgFI-HjT-61" value="&lt;font face=&quot;Comic Sans MS&quot;&gt;&lt;span style=&quot;font-size: 7px;&quot;&gt;&lt;b&gt;&lt;i&gt;Summarize the numerical columns (avg, min, max, sum, count, etc.)&lt;/i&gt;&lt;/b&gt;&lt;/span&gt;&lt;/font&gt;" style="text;html=1;align=left;verticalAlign=middle;whiteSpace=wrap;rounded=0;" vertex="1" parent="1">
          <mxGeometry x="590" y="480" width="170" height="30" as="geometry" />
        </mxCell>
        <mxCell id="O-xmrvNS8dKCKgFI-HjT-62" value="&lt;font face=&quot;Comic Sans MS&quot;&gt;&lt;span style=&quot;font-size: 7px;&quot;&gt;&lt;b&gt;&lt;i&gt;Compares measures against dimension (sales by city, customers count by country, etc.)&lt;/i&gt;&lt;/b&gt;&lt;/span&gt;&lt;/font&gt;" style="text;html=1;align=left;verticalAlign=middle;whiteSpace=wrap;rounded=0;" vertex="1" parent="1">
          <mxGeometry x="440" y="600" width="170" height="30" as="geometry" />
        </mxCell>
        <mxCell id="O-xmrvNS8dKCKgFI-HjT-63" value="&lt;font face=&quot;Comic Sans MS&quot;&gt;&lt;span style=&quot;font-size: 7px;&quot;&gt;&lt;b&gt;&lt;i&gt;Ranking the result&lt;/i&gt;&lt;/b&gt;&lt;/span&gt;&lt;/font&gt;" style="text;html=1;align=left;verticalAlign=middle;whiteSpace=wrap;rounded=0;" vertex="1" parent="1">
          <mxGeometry x="250" y="600" width="100" height="30" as="geometry" />
        </mxCell>
      </root>
    </mxGraphModel>
  </diagram>
</mxfile>
